<svg width="123" height="18" viewBox="0 0 123 18" fill="none" xmlns="http://www.w3.org/2000/svg">
<path d="M7.88738 9.992C7.88738 10.5467 7.75404 11.064 7.48738 11.544C7.22071 12.0133 6.81538 12.392 6.27138 12.68C5.72738 12.968 5.06071 13.112 4.27138 13.112C3.50338 13.112 2.81538 12.9787 2.20738 12.712C1.59938 12.4347 1.11404 12.0507 0.751375 11.56C0.388708 11.0693 0.180708 10.504 0.127375 9.864H2.07938C2.13271 10.3547 2.34071 10.776 2.70338 11.128C3.07671 11.48 3.57271 11.656 4.19138 11.656C4.74604 11.656 5.17271 11.5067 5.47138 11.208C5.78071 10.9093 5.93538 10.5253 5.93538 10.056C5.93538 9.65067 5.82338 9.32 5.59938 9.064C5.37538 8.79733 5.09804 8.58933 4.76738 8.44C4.43671 8.29067 3.98338 8.12 3.40738 7.928C2.70338 7.704 2.12738 7.48 1.67938 7.256C1.24204 7.032 0.868708 6.70667 0.559375 6.28C0.250042 5.85333 0.0953751 5.29333 0.0953751 4.6C0.0953751 3.992 0.244708 3.45867 0.543375 3C0.842042 2.54133 1.26871 2.18933 1.82338 1.944C2.37804 1.688 3.01804 1.56 3.74338 1.56C4.89538 1.56 5.80738 1.83733 6.47938 2.392C7.16204 2.94667 7.55138 3.672 7.64738 4.568H5.67938C5.60471 4.14133 5.40204 3.77867 5.07138 3.48C4.75138 3.17067 4.30871 3.016 3.74338 3.016C3.23138 3.016 2.82071 3.14933 2.51138 3.416C2.20204 3.672 2.04738 4.04533 2.04738 4.536C2.04738 4.92 2.15404 5.24 2.36738 5.496C2.58071 5.74133 2.84738 5.93867 3.16738 6.088C3.49804 6.22667 3.94604 6.392 4.51138 6.584C5.22604 6.808 5.80738 7.03733 6.25538 7.272C6.71404 7.496 7.09804 7.82667 7.40738 8.264C7.72738 8.70133 7.88738 9.27733 7.88738 9.992ZM17.9054 8.168C17.9054 8.46667 17.884 8.728 17.8414 8.952H11.0574C11.0894 9.85867 11.34 10.5307 11.8094 10.968C12.2787 11.4053 12.86 11.624 13.5534 11.624C14.1614 11.624 14.6734 11.4693 15.0894 11.16C15.516 10.8507 15.7774 10.44 15.8734 9.928H17.8254C17.708 10.5467 17.4627 11.096 17.0894 11.576C16.716 12.056 16.2307 12.4347 15.6334 12.712C15.036 12.9787 14.3694 13.112 13.6334 13.112C12.78 13.112 12.0227 12.9307 11.3614 12.568C10.7107 12.2053 10.1987 11.6827 9.82538 11C9.45204 10.3173 9.26538 9.512 9.26538 8.584C9.26538 7.66667 9.45204 6.86667 9.82538 6.184C10.1987 5.50133 10.7107 4.97867 11.3614 4.616C12.0227 4.25333 12.78 4.072 13.6334 4.072C14.4974 4.072 15.2494 4.25333 15.8894 4.616C16.54 4.968 17.036 5.45867 17.3774 6.088C17.7294 6.70667 17.9054 7.4 17.9054 8.168ZM16.0654 8.12C16.0867 7.544 15.9854 7.064 15.7614 6.68C15.548 6.28533 15.2494 5.99733 14.8654 5.816C14.492 5.624 14.0814 5.528 13.6334 5.528C12.9187 5.528 12.3214 5.74667 11.8414 6.184C11.3614 6.62133 11.1 7.26667 11.0574 8.12H16.0654ZM27.8585 8.168C27.8585 8.46667 27.8372 8.728 27.7945 8.952H21.0105C21.0425 9.85867 21.2932 10.5307 21.7625 10.968C22.2318 11.4053 22.8132 11.624 23.5065 11.624C24.1145 11.624 24.6265 11.4693 25.0425 11.16C25.4692 10.8507 25.7305 10.44 25.8265 9.928H27.7785C27.6612 10.5467 27.4158 11.096 27.0425 11.576C26.6692 12.056 26.1838 12.4347 25.5865 12.712C24.9892 12.9787 24.3225 13.112 23.5865 13.112C22.7332 13.112 21.9758 12.9307 21.3145 12.568C20.6638 12.2053 20.1518 11.6827 19.7785 11C19.4052 10.3173 19.2185 9.512 19.2185 8.584C19.2185 7.66667 19.4052 6.86667 19.7785 6.184C20.1518 5.50133 20.6638 4.97867 21.3145 4.616C21.9758 4.25333 22.7332 4.072 23.5865 4.072C24.4505 4.072 25.2025 4.25333 25.8425 4.616C26.4932 4.968 26.9892 5.45867 27.3305 6.088C27.6825 6.70667 27.8585 7.4 27.8585 8.168ZM26.0185 8.12C26.0398 7.544 25.9385 7.064 25.7145 6.68C25.5012 6.28533 25.2025 5.99733 24.8185 5.816C24.4452 5.624 24.0345 5.528 23.5865 5.528C22.8718 5.528 22.2745 5.74667 21.7945 6.184C21.3145 6.62133 21.0532 7.26667 21.0105 8.12H26.0185ZM37.8016 11.416V13H36.6816C35.743 13 35.0283 12.776 34.5376 12.328C34.0576 11.8693 33.8176 11.112 33.8176 10.056V5.736H32.5536V4.184H33.8176V1.992H35.6576V4.184H37.7856V5.736H35.6576V10.088C35.6576 10.5893 35.7483 10.936 35.9296 11.128C36.1216 11.32 36.4523 11.416 36.9216 11.416H37.8016ZM44.4383 4.04C45.4623 4.04 46.2836 4.37067 46.9023 5.032C47.5209 5.69333 47.8303 6.63733 47.8303 7.864V13H46.0063V8.056C46.0063 7.26667 45.8036 6.65867 45.3983 6.232C44.9929 5.79467 44.4383 5.576 43.7343 5.576C43.0089 5.576 42.4276 5.81067 41.9903 6.28C41.5529 6.73867 41.3343 7.416 41.3343 8.312V13H39.5103V1.16H41.3343V6.12C41.5689 5.45867 41.9636 4.94667 42.5182 4.584C43.0729 4.22133 43.7129 4.04 44.4383 4.04ZM49.7074 1.624C49.7074 1.31467 49.814 1.05867 50.0274 0.855999C50.2407 0.653332 50.5234 0.551999 50.8754 0.551999C51.2274 0.551999 51.51 0.653332 51.7234 0.855999C51.9474 1.05867 52.0594 1.31467 52.0594 1.624C52.0594 1.93333 51.9474 2.184 51.7234 2.376C51.51 2.568 51.2274 2.664 50.8754 2.664C50.5234 2.664 50.2407 2.568 50.0274 2.376C49.814 2.184 49.7074 1.93333 49.7074 1.624ZM51.7874 4.184V13H49.9634V4.184H51.7874ZM56.8906 4.072C57.9253 4.072 58.752 4.33867 59.3706 4.872C60 5.39467 60.384 6.09867 60.5226 6.984H58.7946C58.72 6.504 58.512 6.12 58.1706 5.832C57.84 5.53333 57.3973 5.384 56.8426 5.384C56.384 5.384 56.0266 5.496 55.7706 5.72C55.5253 5.93333 55.4026 6.22667 55.4026 6.6C55.4026 6.87733 55.4933 7.10133 55.6746 7.272C55.856 7.44267 56.08 7.576 56.3466 7.672C56.624 7.768 57.0133 7.87467 57.5146 7.992C58.176 8.14133 58.7093 8.296 59.1146 8.456C59.5306 8.616 59.8826 8.872 60.1706 9.224C60.4693 9.56533 60.6186 10.0347 60.6186 10.632C60.6186 11.368 60.336 11.9653 59.7706 12.424C59.216 12.8827 58.464 13.112 57.5146 13.112C56.416 13.112 55.5253 12.856 54.8426 12.344C54.1706 11.832 53.7653 11.1173 53.6266 10.2H55.4026C55.456 10.68 55.6693 11.0693 56.0426 11.368C56.416 11.6667 56.9066 11.816 57.5146 11.816C57.952 11.816 58.2933 11.704 58.5386 11.48C58.7946 11.2453 58.9226 10.952 58.9226 10.6C58.9226 10.2907 58.8266 10.0453 58.6346 9.864C58.4426 9.68267 58.2026 9.544 57.9146 9.448C57.6266 9.34133 57.232 9.23467 56.7306 9.128C56.0906 8.97867 55.568 8.82933 55.1626 8.68C54.768 8.53067 54.4266 8.29067 54.1386 7.96C53.8613 7.61867 53.7226 7.16 53.7226 6.584C53.7226 5.83733 54 5.23467 54.5546 4.776C55.12 4.30667 55.8986 4.072 56.8906 4.072ZM71.2538 4.072C72.0218 4.072 72.7044 4.25333 73.3018 4.616C73.9098 4.97867 74.3844 5.50133 74.7258 6.184C75.0671 6.86667 75.2378 7.66667 75.2378 8.584C75.2378 9.512 75.0671 10.3173 74.7258 11C74.3844 11.6827 73.9098 12.2053 73.3018 12.568C72.7044 12.9307 72.0218 13.112 71.2538 13.112C70.4538 13.112 69.7711 12.9147 69.2057 12.52C68.6404 12.1253 68.2458 11.6027 68.0218 10.952V17.192H66.1978V4.184H68.0218V6.232C68.2458 5.58133 68.6404 5.05867 69.2057 4.664C69.7711 4.26933 70.4538 4.072 71.2538 4.072ZM70.6938 5.672C70.1818 5.672 69.7231 5.79467 69.3177 6.04C68.9124 6.27467 68.5924 6.616 68.3578 7.064C68.1231 7.50133 68.0058 8.008 68.0058 8.584C68.0058 9.17067 68.1231 9.68267 68.3578 10.12C68.5924 10.5573 68.9124 10.8987 69.3177 11.144C69.7231 11.3787 70.1818 11.496 70.6938 11.496C71.5044 11.496 72.1551 11.24 72.6458 10.728C73.1364 10.2053 73.3818 9.49067 73.3818 8.584C73.3818 7.688 73.1364 6.97867 72.6458 6.456C72.1551 5.93333 71.5044 5.672 70.6938 5.672ZM78.8186 5.912C79.1173 5.336 79.544 4.88267 80.0986 4.552C80.6533 4.21067 81.2933 4.04 82.0186 4.04V6.024H81.4746C80.6746 6.024 80.0293 6.22133 79.5386 6.616C79.0586 7 78.8186 7.64 78.8186 8.536V13H76.9946V4.184H78.8186V5.912ZM87.4173 4.072C88.2706 4.072 89.0386 4.25333 89.7213 4.616C90.4039 4.97867 90.9373 5.50133 91.3212 6.184C91.7053 6.86667 91.8973 7.66667 91.8973 8.584C91.8973 9.512 91.7053 10.3173 91.3212 11C90.9373 11.6827 90.4039 12.2053 89.7213 12.568C89.0386 12.9307 88.2706 13.112 87.4173 13.112C86.5639 13.112 85.7959 12.9307 85.1133 12.568C84.4413 12.2053 83.9079 11.6827 83.5133 11C83.1293 10.3067 82.9373 9.50133 82.9373 8.584C82.9373 7.66667 83.1293 6.86667 83.5133 6.184C83.9079 5.50133 84.4413 4.97867 85.1133 4.616C85.7959 4.25333 86.5639 4.072 87.4173 4.072ZM87.4173 5.656C86.9479 5.656 86.5159 5.76267 86.1213 5.976C85.7266 6.18933 85.4066 6.52 85.1613 6.968C84.9266 7.40533 84.8093 7.944 84.8093 8.584C84.8093 9.23467 84.9266 9.77867 85.1613 10.216C85.4066 10.6533 85.7266 10.9787 86.1213 11.192C86.5159 11.4053 86.9479 11.512 87.4173 11.512C87.8866 11.512 88.3186 11.4053 88.7133 11.192C89.1079 10.9787 89.4226 10.6533 89.6573 10.216C89.9026 9.77867 90.0253 9.23467 90.0253 8.584C90.0253 7.944 89.9026 7.40533 89.6573 6.968C89.4226 6.52 89.1079 6.18933 88.7133 5.976C88.3186 5.76267 87.8866 5.656 87.4173 5.656ZM94.6429 2.664C94.2909 2.664 94.0029 2.568 93.7789 2.376C93.5655 2.184 93.4589 1.93333 93.4589 1.624C93.4589 1.31467 93.5655 1.05867 93.7789 0.855999C94.0029 0.653332 94.2909 0.551999 94.6429 0.551999C94.9949 0.551999 95.2775 0.653332 95.4909 0.855999C95.7042 1.05867 95.8109 1.31467 95.8109 1.624C95.8109 1.93333 95.7042 2.184 95.4909 2.376C95.2775 2.568 94.9949 2.664 94.6429 2.664ZM92.0829 15.592H92.7069C93.0589 15.592 93.3149 15.512 93.4749 15.352C93.6455 15.2027 93.7309 14.9413 93.7309 14.568V4.184H95.5709V14.584C95.5709 16.3227 94.6962 17.192 92.9469 17.192H92.0829V15.592ZM105.937 8.168C105.937 8.46667 105.915 8.728 105.873 8.952H99.0886C99.1206 9.85867 99.3713 10.5307 99.8406 10.968C100.31 11.4053 100.891 11.624 101.585 11.624C102.193 11.624 102.705 11.4693 103.121 11.16C103.547 10.8507 103.809 10.44 103.905 9.928H105.857C105.739 10.5467 105.494 11.096 105.121 11.576C104.747 12.056 104.262 12.4347 103.665 12.712C103.067 12.9787 102.401 13.112 101.665 13.112C100.811 13.112 100.054 12.9307 99.3926 12.568C98.742 12.2053 98.23 11.6827 97.8566 11C97.4833 10.3173 97.2966 9.512 97.2966 8.584C97.2966 7.66667 97.4833 6.86667 97.8566 6.184C98.23 5.50133 98.742 4.97867 99.3926 4.616C100.054 4.25333 100.811 4.072 101.665 4.072C102.529 4.072 103.281 4.25333 103.921 4.616C104.571 4.968 105.067 5.45867 105.409 6.088C105.761 6.70667 105.937 7.4 105.937 8.168ZM104.097 8.12C104.118 7.544 104.017 7.064 103.793 6.68C103.579 6.28533 103.281 5.99733 102.897 5.816C102.523 5.624 102.113 5.528 101.665 5.528C100.95 5.528 100.353 5.74667 99.8726 6.184C99.3926 6.62133 99.1313 7.26667 99.0886 8.12H104.097ZM111.618 4.072C112.759 4.072 113.703 4.376 114.45 4.984C115.196 5.58133 115.66 6.39733 115.842 7.432H113.906C113.799 6.87733 113.538 6.44533 113.122 6.136C112.716 5.816 112.204 5.656 111.586 5.656C110.882 5.656 110.295 5.90667 109.826 6.408C109.356 6.89867 109.122 7.624 109.122 8.584C109.122 9.544 109.356 10.2747 109.826 10.776C110.295 11.2773 110.882 11.528 111.586 11.528C112.204 11.528 112.716 11.368 113.122 11.048C113.538 10.728 113.799 10.2907 113.906 9.736H115.842C115.66 10.7707 115.196 11.592 114.45 12.2C113.703 12.808 112.759 13.112 111.618 13.112C110.764 13.112 110.007 12.9307 109.346 12.568C108.695 12.2053 108.183 11.6827 107.81 11C107.436 10.3173 107.25 9.512 107.25 8.584C107.25 7.66667 107.436 6.86667 107.81 6.184C108.183 5.50133 108.695 4.97867 109.346 4.616C110.007 4.25333 110.764 4.072 111.618 4.072ZM122.036 11.416V13H120.916C119.977 13 119.263 12.776 118.772 12.328C118.292 11.8693 118.052 11.112 118.052 10.056V5.736H116.788V4.184H118.052V1.992H119.892V4.184H122.02V5.736H119.892V10.088C119.892 10.5893 119.983 10.936 120.164 11.128C120.356 11.32 120.687 11.416 121.156 11.416H122.036Z" fill="white"/>
</svg>
