<svg width="127" height="17" viewBox="0 0 127 17" fill="none" xmlns="http://www.w3.org/2000/svg">
<path d="M6.272 0.608C7.616 0.608 8.736 0.938666 9.632 1.6C10.528 2.26133 11.12 3.16267 11.408 4.304H9.488C9.24267 3.696 8.83733 3.21067 8.272 2.848C7.71733 2.48533 7.056 2.304 6.288 2.304C5.584 2.304 4.94933 2.46933 4.384 2.8C3.82933 3.13067 3.392 3.6 3.072 4.208C2.76267 4.816 2.608 5.53067 2.608 6.352C2.608 7.216 2.768 7.95733 3.088 8.576C3.408 9.19467 3.856 9.66933 4.432 10C5.01867 10.32 5.696 10.48 6.464 10.48C7.40267 10.48 8.208 10.192 8.88 9.616C9.552 9.02933 9.95733 8.22933 10.096 7.216H5.952V5.872H11.632V7.616C11.504 8.448 11.2053 9.20533 10.736 9.888C10.2773 10.56 9.664 11.0987 8.896 11.504C8.13867 11.9093 7.26933 12.112 6.288 12.112C5.18933 12.112 4.21867 11.8667 3.376 11.376C2.53333 10.8853 1.88267 10.208 1.424 9.344C0.965333 8.46933 0.736 7.472 0.736 6.352C0.736 5.232 0.965333 4.24 1.424 3.376C1.88267 2.50133 2.528 1.824 3.36 1.344C4.20267 0.853333 5.17333 0.608 6.272 0.608ZM21.671 7.168C21.671 7.46667 21.6497 7.728 21.607 7.952H14.823C14.855 8.85867 15.1057 9.53067 15.575 9.968C16.0443 10.4053 16.6257 10.624 17.319 10.624C17.927 10.624 18.439 10.4693 18.855 10.16C19.2817 9.85067 19.543 9.44 19.639 8.928H21.591C21.4737 9.54667 21.2283 10.096 20.855 10.576C20.4817 11.056 19.9963 11.4347 19.399 11.712C18.8017 11.9787 18.135 12.112 17.399 12.112C16.5457 12.112 15.7883 11.9307 15.127 11.568C14.4763 11.2053 13.9643 10.6827 13.591 10C13.2177 9.31733 13.031 8.512 13.031 7.584C13.031 6.66667 13.2177 5.86667 13.591 5.184C13.9643 4.50133 14.4763 3.97867 15.127 3.616C15.7883 3.25333 16.5457 3.072 17.399 3.072C18.263 3.072 19.015 3.25333 19.655 3.616C20.3057 3.968 20.8017 4.45867 21.143 5.088C21.495 5.70667 21.671 6.4 21.671 7.168ZM19.831 7.12C19.8523 6.544 19.751 6.064 19.527 5.68C19.3137 5.28533 19.015 4.99733 18.631 4.816C18.2577 4.624 17.847 4.528 17.399 4.528C16.6843 4.528 16.087 4.74667 15.607 5.184C15.127 5.62133 14.8657 6.26667 14.823 7.12H19.831ZM27.8641 10.416V12H26.7441C25.8055 12 25.0908 11.776 24.6001 11.328C24.1201 10.8693 23.8801 10.112 23.8801 9.056V4.736H22.6161V3.184H23.8801V0.992H25.7201V3.184H27.8481V4.736H25.7201V9.088C25.7201 9.58933 25.8108 9.936 25.9921 10.128C26.1841 10.32 26.5148 10.416 26.9841 10.416H27.8641ZM44.3468 3.04C45.3921 3.04 46.2241 3.37067 46.8428 4.032C47.4721 4.69333 47.7868 5.63733 47.7868 6.864V12H45.9628V7.056C45.9628 6.288 45.7708 5.696 45.3868 5.28C45.0028 4.85333 44.4748 4.64 43.8028 4.64C43.0881 4.64 42.5174 4.86933 42.0908 5.328C41.6748 5.776 41.4668 6.43733 41.4668 7.312V12H39.6428V7.056C39.6428 6.288 39.4508 5.696 39.0668 5.28C38.6828 4.85333 38.1548 4.64 37.4828 4.64C36.7681 4.64 36.1974 4.86933 35.7708 5.328C35.3548 5.776 35.1468 6.43733 35.1468 7.312V12H33.3228V3.184H35.1468V5.024C35.3708 4.384 35.7441 3.89333 36.2668 3.552C36.7894 3.21067 37.4028 3.04 38.1068 3.04C38.8428 3.04 39.4774 3.22133 40.0108 3.584C40.5548 3.94667 40.9494 4.46933 41.1948 5.152C41.4508 4.49067 41.8614 3.97333 42.4268 3.6C42.9921 3.22667 43.6321 3.04 44.3468 3.04ZM50.9565 3.184L53.5965 9.664L56.0445 3.184H58.0765L52.7485 16.192H50.7165L52.6205 11.792L48.9085 3.184H50.9565ZM68.9619 12L66.1459 7.488H64.8499V12H63.0259V0.704H67.0099C68.3005 0.704 69.2765 1.01867 69.9379 1.648C70.6099 2.27733 70.9459 3.10933 70.9459 4.144C70.9459 5.02933 70.6952 5.75467 70.1939 6.32C69.7032 6.88533 68.9885 7.248 68.0499 7.408L71.0099 12H68.9619ZM64.8499 6.192H66.8659C68.3379 6.192 69.0739 5.54133 69.0739 4.24C69.0739 3.62133 68.8925 3.14133 68.5299 2.8C68.1779 2.448 67.6232 2.272 66.8659 2.272H64.8499V6.192ZM80.7804 7.168C80.7804 7.46667 80.759 7.728 80.7164 7.952H73.9324C73.9644 8.85867 74.215 9.53067 74.6844 9.968C75.1537 10.4053 75.735 10.624 76.4284 10.624C77.0364 10.624 77.5484 10.4693 77.9644 10.16C78.391 9.85067 78.6524 9.44 78.7484 8.928H80.7004C80.583 9.54667 80.3377 10.096 79.9644 10.576C79.591 11.056 79.1057 11.4347 78.5084 11.712C77.911 11.9787 77.2444 12.112 76.5084 12.112C75.655 12.112 74.8977 11.9307 74.2364 11.568C73.5857 11.2053 73.0737 10.6827 72.7004 10C72.327 9.31733 72.1404 8.512 72.1404 7.584C72.1404 6.66667 72.327 5.86667 72.7004 5.184C73.0737 4.50133 73.5857 3.97867 74.2364 3.616C74.8977 3.25333 75.655 3.072 76.5084 3.072C77.3724 3.072 78.1244 3.25333 78.7644 3.616C79.415 3.968 79.911 4.45867 80.2524 5.088C80.6044 5.70667 80.7804 6.4 80.7804 7.168ZM78.9404 7.12C78.9617 6.544 78.8604 6.064 78.6364 5.68C78.423 5.28533 78.1244 4.99733 77.7404 4.816C77.367 4.624 76.9564 4.528 76.5084 4.528C75.7937 4.528 75.1964 4.74667 74.7164 5.184C74.2364 5.62133 73.975 6.26667 73.9324 7.12H78.9404ZM85.4375 3.072C86.4722 3.072 87.2988 3.33867 87.9175 3.872C88.5468 4.39467 88.9308 5.09867 89.0695 5.984H87.3415C87.2668 5.504 87.0588 5.12 86.7175 4.832C86.3868 4.53333 85.9442 4.384 85.3895 4.384C84.9308 4.384 84.5735 4.496 84.3175 4.72C84.0722 4.93333 83.9495 5.22667 83.9495 5.6C83.9495 5.87733 84.0402 6.10133 84.2215 6.272C84.4028 6.44267 84.6268 6.576 84.8935 6.672C85.1708 6.768 85.5602 6.87467 86.0615 6.992C86.7228 7.14133 87.2562 7.296 87.6615 7.456C88.0775 7.616 88.4295 7.872 88.7175 8.224C89.0162 8.56533 89.1655 9.03467 89.1655 9.632C89.1655 10.368 88.8828 10.9653 88.3175 11.424C87.7628 11.8827 87.0108 12.112 86.0615 12.112C84.9628 12.112 84.0722 11.856 83.3895 11.344C82.7175 10.832 82.3122 10.1173 82.1735 9.2H83.9495C84.0028 9.68 84.2162 10.0693 84.5895 10.368C84.9628 10.6667 85.4535 10.816 86.0615 10.816C86.4988 10.816 86.8402 10.704 87.0855 10.48C87.3415 10.2453 87.4695 9.952 87.4695 9.6C87.4695 9.29067 87.3735 9.04533 87.1815 8.864C86.9895 8.68267 86.7495 8.544 86.4615 8.448C86.1735 8.34133 85.7788 8.23467 85.2775 8.128C84.6375 7.97867 84.1148 7.82933 83.7095 7.68C83.3148 7.53067 82.9735 7.29067 82.6855 6.96C82.4082 6.61867 82.2695 6.16 82.2695 5.584C82.2695 4.83733 82.5468 4.23467 83.1015 3.776C83.6668 3.30667 84.4455 3.072 85.4375 3.072ZM99.1226 3.184V12H97.2826V10.08C97.0586 10.7307 96.6693 11.2373 96.1146 11.6C95.56 11.952 94.9146 12.128 94.1786 12.128C93.1546 12.128 92.3333 11.7973 91.7146 11.136C91.096 10.4747 90.7866 9.53067 90.7866 8.304V3.184H92.6106V8.112C92.6106 8.912 92.8133 9.53067 93.2186 9.968C93.624 10.3947 94.1786 10.608 94.8826 10.608C95.608 10.608 96.1893 10.3733 96.6266 9.904C97.064 9.43467 97.2826 8.752 97.2826 7.856V3.184H99.1226ZM112.331 3.04C113.376 3.04 114.208 3.37067 114.827 4.032C115.456 4.69333 115.771 5.63733 115.771 6.864V12H113.947V7.056C113.947 6.288 113.755 5.696 113.371 5.28C112.987 4.85333 112.459 4.64 111.787 4.64C111.072 4.64 110.502 4.86933 110.075 5.328C109.659 5.776 109.451 6.43733 109.451 7.312V12H107.627V7.056C107.627 6.288 107.435 5.696 107.051 5.28C106.667 4.85333 106.139 4.64 105.467 4.64C104.752 4.64 104.182 4.86933 103.755 5.328C103.339 5.776 103.131 6.43733 103.131 7.312V12H101.307V3.184H103.131V5.024C103.355 4.384 103.728 3.89333 104.251 3.552C104.774 3.21067 105.387 3.04 106.091 3.04C106.827 3.04 107.462 3.22133 107.995 3.584C108.539 3.94667 108.934 4.46933 109.179 5.152C109.435 4.49067 109.846 3.97333 110.411 3.6C110.976 3.22667 111.616 3.04 112.331 3.04ZM126.093 7.168C126.093 7.46667 126.072 7.728 126.029 7.952H119.245C119.277 8.85867 119.528 9.53067 119.997 9.968C120.466 10.4053 121.048 10.624 121.741 10.624C122.349 10.624 122.861 10.4693 123.277 10.16C123.704 9.85067 123.965 9.44 124.061 8.928H126.013C125.896 9.54667 125.65 10.096 125.277 10.576C124.904 11.056 124.418 11.4347 123.821 11.712C123.224 11.9787 122.557 12.112 121.821 12.112C120.968 12.112 120.21 11.9307 119.549 11.568C118.898 11.2053 118.386 10.6827 118.013 10C117.64 9.31733 117.453 8.512 117.453 7.584C117.453 6.66667 117.64 5.86667 118.013 5.184C118.386 4.50133 118.898 3.97867 119.549 3.616C120.21 3.25333 120.968 3.072 121.821 3.072C122.685 3.072 123.437 3.25333 124.077 3.616C124.728 3.968 125.224 4.45867 125.565 5.088C125.917 5.70667 126.093 6.4 126.093 7.168ZM124.253 7.12C124.274 6.544 124.173 6.064 123.949 5.68C123.736 5.28533 123.437 4.99733 123.053 4.816C122.68 4.624 122.269 4.528 121.821 4.528C121.106 4.528 120.509 4.74667 120.029 5.184C119.549 5.62133 119.288 6.26667 119.245 7.12H124.253Z" fill="#92DCDC"/>
</svg>
